<svg xmlns="http://www.w3.org/2000/svg" viewBox="0 0 256 256">
<defs><radialGradient id="g-boss-7" cx="38%" cy="32%" r="80%"><stop offset="0%" stop-color="#3f80c8"/><stop offset="100%" stop-color="#123a6b"/></radialGradient></defs><circle cx="128" cy="138" r="102" fill="#8fc9ff" opacity="0.22"/><ellipse cx="128" cy="236" rx="66" ry="12" fill="#3ea5ff" opacity="0.35"/><circle cx="73" cy="134" r="41.25" fill="url(#g-boss-7)" stroke="#1a0f2e" stroke-width="7"/><circle cx="133" cy="104" r="52.5" fill="url(#g-boss-7)" stroke="#1a0f2e" stroke-width="7"/><circle cx="188" cy="136.5" r="36.25" fill="url(#g-boss-7)" stroke="#1a0f2e" stroke-width="7"/><rect x="50.5" y="129" width="155" height="47.5" rx="23.75" fill="url(#g-boss-7)" stroke="#1a0f2e" stroke-width="7"/><circle cx="73" cy="134" r="41.25" fill="url(#g-boss-7)"/><circle cx="133" cy="104" r="52.5" fill="url(#g-boss-7)"/><circle cx="188" cy="136.5" r="36.25" fill="url(#g-boss-7)"/><rect x="50.5" y="129" width="155" height="47.5" rx="23.75" fill="url(#g-boss-7)"/><path transform="translate(38 202) scale(0.7)" d="M3 -24 L-11 4 L-3 4 L-7 24 L11 -5 L3 -5 Z" fill="#ffd23e" stroke="#1a0f2e" stroke-width="7.1" stroke-linejoin="round"/><path transform="translate(68 216) scale(0.7)" d="M3 -24 L-11 4 L-3 4 L-7 24 L11 -5 L3 -5 Z" fill="#ffd23e" stroke="#1a0f2e" stroke-width="7.1" stroke-linejoin="round"/><path transform="translate(98 202) scale(0.7)" d="M3 -24 L-11 4 L-3 4 L-7 24 L11 -5 L3 -5 Z" fill="#ffd23e" stroke="#1a0f2e" stroke-width="7.1" stroke-linejoin="round"/><path transform="translate(128 216) scale(1.1)" d="M3 -24 L-11 4 L-3 4 L-7 24 L11 -5 L3 -5 Z" fill="#ffd23e" stroke="#1a0f2e" stroke-width="4.5" stroke-linejoin="round"/><path transform="translate(158 202) scale(0.7)" d="M3 -24 L-11 4 L-3 4 L-7 24 L11 -5 L3 -5 Z" fill="#ffd23e" stroke="#1a0f2e" stroke-width="7.1" stroke-linejoin="round"/><path transform="translate(188 216) scale(0.7)" d="M3 -24 L-11 4 L-3 4 L-7 24 L11 -5 L3 -5 Z" fill="#ffd23e" stroke="#1a0f2e" stroke-width="7.1" stroke-linejoin="round"/><path transform="translate(218 202) scale(0.7)" d="M3 -24 L-11 4 L-3 4 L-7 24 L11 -5 L3 -5 Z" fill="#ffd23e" stroke="#1a0f2e" stroke-width="7.1" stroke-linejoin="round"/><path d="M85 100 L115 115" stroke="#0c2c52" stroke-width="9" stroke-linecap="round"/><path d="M171 100 L141 115" stroke="#0c2c52" stroke-width="9" stroke-linecap="round"/><circle cx="102" cy="132" r="12" fill="#fff"/><circle cx="98.4" cy="127.8" r="3.6" fill="#fff"/><circle cx="154" cy="132" r="12" fill="#fff"/><circle cx="150.4" cy="127.8" r="3.6" fill="#fff"/><path d="M104 164 l12 10 l12 -10 l12 10 l12 -10" fill="none" stroke="#1a0f2e" stroke-width="6" stroke-linecap="round" stroke-linejoin="round"/>
</svg>
