<svg xmlns="http://www.w3.org/2000/svg" viewBox="0 0 256 256">
<defs><radialGradient id="g-boss-2" cx="38%" cy="32%" r="80%"><stop offset="0%" stop-color="#a75dff"/><stop offset="100%" stop-color="#6b1fd8"/></radialGradient></defs><circle cx="128" cy="138" r="102" fill="#cf9bff" opacity="0.22"/><ellipse cx="128" cy="236" rx="66" ry="12" fill="#9b3ff7" opacity="0.35"/><circle cx="73" cy="136" r="41.25" fill="url(#g-boss-2)" stroke="#1a0f2e" stroke-width="7"/><circle cx="133" cy="106" r="52.5" fill="url(#g-boss-2)" stroke="#1a0f2e" stroke-width="7"/><circle cx="188" cy="138.5" r="36.25" fill="url(#g-boss-2)" stroke="#1a0f2e" stroke-width="7"/><rect x="50.5" y="131" width="155" height="47.5" rx="23.75" fill="url(#g-boss-2)" stroke="#1a0f2e" stroke-width="7"/><circle cx="73" cy="136" r="41.25" fill="url(#g-boss-2)"/><circle cx="133" cy="106" r="52.5" fill="url(#g-boss-2)"/><circle cx="188" cy="138.5" r="36.25" fill="url(#g-boss-2)"/><rect x="50.5" y="131" width="155" height="47.5" rx="23.75" fill="url(#g-boss-2)"/><path transform="translate(86 212) scale(0.95)" d="M3 -24 L-11 4 L-3 4 L-7 24 L11 -5 L3 -5 Z" fill="#ffd23e" stroke="#1a0f2e" stroke-width="5.3" stroke-linejoin="round"/><path transform="translate(128 220) scale(1.15)" d="M3 -24 L-11 4 L-3 4 L-7 24 L11 -5 L3 -5 Z" fill="#ffd23e" stroke="#1a0f2e" stroke-width="4.3" stroke-linejoin="round"/><path transform="translate(170 212) scale(0.95)" d="M3 -24 L-11 4 L-3 4 L-7 24 L11 -5 L3 -5 Z" fill="#ffd23e" stroke="#1a0f2e" stroke-width="5.3" stroke-linejoin="round"/><path d="M86 104 L114 119" stroke="#3d1470" stroke-width="9" stroke-linecap="round"/><path d="M170 104 L142 119" stroke="#3d1470" stroke-width="9" stroke-linecap="round"/><ellipse cx="100" cy="134" rx="16" ry="18" fill="#fff" stroke="#1a0f2e" stroke-width="5"/><circle cx="102" cy="136" r="8" fill="#1a0f2e"/><circle cx="99.2" cy="132.8" r="2.6" fill="#fff"/><ellipse cx="156" cy="134" rx="16" ry="18" fill="#fff" stroke="#1a0f2e" stroke-width="5"/><circle cx="158" cy="136" r="8" fill="#1a0f2e"/><circle cx="155.2" cy="132.8" r="2.6" fill="#fff"/><path d="M106 166 l11 10 l11 -10 l11 10 l11 -10" fill="none" stroke="#1a0f2e" stroke-width="6" stroke-linecap="round" stroke-linejoin="round"/>
</svg>
