<svg xmlns="http://www.w3.org/2000/svg" viewBox="0 0 256 256">
<defs><radialGradient id="g-boss-11" cx="38%" cy="32%" r="80%"><stop offset="0%" stop-color="#ff7a3e"/><stop offset="100%" stop-color="#a82408"/></radialGradient></defs><circle cx="128" cy="138" r="106" fill="#ff9a6e" opacity="0.22"/><ellipse cx="128" cy="236" rx="66" ry="12" fill="#ff5a3e" opacity="0.35"/><path transform="translate(52 92) scale(0.7)" d="M3 -24 L-11 4 L-3 4 L-7 24 L11 -5 L3 -5 Z" fill="#2ff7e6" stroke="#1a0f2e" stroke-width="7.1" stroke-linejoin="round"/><path transform="translate(206 108) scale(0.7)" d="M3 -24 L-11 4 L-3 4 L-7 24 L11 -5 L3 -5 Z" fill="#ffd23e" stroke="#1a0f2e" stroke-width="7.1" stroke-linejoin="round"/><path transform="translate(190 44) scale(0.6)" d="M3 -24 L-11 4 L-3 4 L-7 24 L11 -5 L3 -5 Z" fill="#ff3ea5" stroke="#1a0f2e" stroke-width="8.3" stroke-linejoin="round"/><circle cx="128" cy="142" r="72" fill="url(#g-boss-11)" stroke="#1a0f2e" stroke-width="7"/><circle cx="128" cy="142" r="25" fill="none" stroke="#ffd9a1" stroke-width="9" stroke-linecap="round" stroke-dasharray="98 60" transform="rotate(0 128 142)" opacity="0.9"/><circle cx="128" cy="142" r="45" fill="none" stroke="#ffd9a1" stroke-width="9" stroke-linecap="round" stroke-dasharray="174 107" transform="rotate(130 128 142)" opacity="0.65"/><circle cx="128" cy="142" r="63" fill="none" stroke="#ffd9a1" stroke-width="9" stroke-linecap="round" stroke-dasharray="247 151" transform="rotate(260 128 142)" opacity="0.4"/><path d="M85 104 L111 119" stroke="#701e08" stroke-width="9" stroke-linecap="round"/><path d="M171 104 L145 119" stroke="#701e08" stroke-width="9" stroke-linecap="round"/><ellipse cx="100" cy="132" rx="15" ry="17" fill="#fff" stroke="#1a0f2e" stroke-width="5"/><circle cx="102" cy="134" r="8" fill="#1a0f2e"/><circle cx="99.2" cy="130.8" r="2.6" fill="#fff"/><ellipse cx="156" cy="132" rx="15" ry="17" fill="#fff" stroke="#1a0f2e" stroke-width="5"/><circle cx="158" cy="134" r="8" fill="#1a0f2e"/><circle cx="155.2" cy="130.8" r="2.6" fill="#fff"/><ellipse cx="128" cy="112" rx="10" ry="11" fill="#fff" stroke="#1a0f2e" stroke-width="5"/><circle cx="130" cy="113" r="5" fill="#1a0f2e"/><circle cx="128.3" cy="111.0" r="2.4" fill="#fff"/><path d="M110 168 Q128 193.2 146 168 Q128 172 110 168 Z" fill="#5a1030" stroke="#1a0f2e" stroke-width="5" stroke-linejoin="round"/><path d="M108 166 l6 13 l6 -13 z" fill="#fff" stroke="#1a0f2e" stroke-width="3.5" stroke-linejoin="round"/><path d="M136 166 l6 13 l6 -13 z" fill="#fff" stroke="#1a0f2e" stroke-width="3.5" stroke-linejoin="round"/>
</svg>
