<svg xmlns="http://www.w3.org/2000/svg" viewBox="0 0 256 256">
<defs><radialGradient id="g-boss-6" cx="38%" cy="32%" r="80%"><stop offset="0%" stop-color="#3a1f68"/><stop offset="100%" stop-color="#160a2e"/></radialGradient></defs><circle cx="128" cy="138" r="106" fill="#2ff7e6" opacity="0.14"/><ellipse cx="128" cy="236" rx="66" ry="12" fill="#2ff7e6" opacity="0.35"/><circle cx="35" cy="102" r="6.5" fill="#2ff7e6" opacity="0.85"/><circle cx="60" cy="68" r="6.5" fill="#2ff7e6" opacity="0.85"/><circle cx="103" cy="49" r="6.5" fill="#2ff7e6" opacity="0.85"/><circle cx="153" cy="49" r="6.5" fill="#2ff7e6" opacity="0.85"/><circle cx="196" cy="68" r="6.5" fill="#2ff7e6" opacity="0.85"/><circle cx="221" cy="102" r="6.5" fill="#2ff7e6" opacity="0.85"/><path d="M86 130 q-45.900000000000006 -40.5 -78.30000000000001 -16.200000000000003 q-8.100000000000001 29.700000000000003 2.7 45.900000000000006 q16.200000000000003 -10.8 24.3 2.7 q5.4 18.900000000000002 18.900000000000002 21.6 q13.5 -8.100000000000001 32.400000000000006 -5.4 z" fill="#2a1550" stroke="#1a0f2e" stroke-width="6" stroke-linejoin="round"/><path d="M170 130 q45.900000000000006 -40.5 78.30000000000001 -16.200000000000003 q8.100000000000001 29.700000000000003 -2.7 45.900000000000006 q-16.200000000000003 -10.8 -24.3 2.7 q-5.4 18.900000000000002 -18.900000000000002 21.6 q-13.5 -8.100000000000001 -32.400000000000006 -5.4 z" fill="#2a1550" stroke="#1a0f2e" stroke-width="6" stroke-linejoin="round"/><polygon points="92,98 102,52 122,90" fill="#241040" stroke="#1a0f2e" stroke-width="6" stroke-linejoin="round"/><polygon points="164,98 154,52 134,90" fill="#241040" stroke="#1a0f2e" stroke-width="6" stroke-linejoin="round"/><circle cx="128" cy="140" r="62" fill="url(#g-boss-6)" stroke="#1a0f2e" stroke-width="7"/><ellipse cx="106.3" cy="105.9" rx="22.32" ry="12.4" fill="#fff" opacity="0.25" transform="rotate(-24 106.3 105.9)"/><path d="M96 118 l24 12 M160 118 l-24 12" stroke="#2ff7e6" stroke-width="7" stroke-linecap="round"/><circle cx="106" cy="140" r="12" fill="#2ff7e6"/><circle cx="102.4" cy="135.8" r="3.6" fill="#fff"/><circle cx="150" cy="140" r="12" fill="#2ff7e6"/><circle cx="146.4" cy="135.8" r="3.6" fill="#fff"/><path d="M116 166 Q128 177 140 166" fill="none" stroke="#2ff7e6" stroke-width="6" stroke-linecap="round"/><path d="M106 162 l6 13 l6 -13 z" fill="#fff" stroke="#1a0f2e" stroke-width="3.5" stroke-linejoin="round"/><path d="M138 162 l6 13 l6 -13 z" fill="#fff" stroke="#1a0f2e" stroke-width="3.5" stroke-linejoin="round"/>
</svg>
