<svg xmlns="http://www.w3.org/2000/svg" viewBox="0 0 256 256">
<defs><radialGradient id="g-boss-4" cx="38%" cy="32%" r="80%"><stop offset="0%" stop-color="#ff6a3e"/><stop offset="100%" stop-color="#b32a0e"/></radialGradient></defs><circle cx="128" cy="138" r="104" fill="#ff9a6e" opacity="0.22"/><ellipse cx="128" cy="236" rx="66" ry="12" fill="#ff5a3e" opacity="0.35"/><line x1="74" y1="100" x2="34" y2="52" stroke="#1a0f2e" stroke-width="12" stroke-linecap="round"/><line x1="74" y1="100" x2="34" y2="52" stroke="#ffd9a1" stroke-width="7" stroke-linecap="round"/><circle cx="34" cy="52" r="9" fill="#ffd9a1" stroke="#1a0f2e" stroke-width="5"/><line x1="182" y1="100" x2="222" y2="52" stroke="#1a0f2e" stroke-width="12" stroke-linecap="round"/><line x1="182" y1="100" x2="222" y2="52" stroke="#ffd9a1" stroke-width="7" stroke-linecap="round"/><circle cx="222" cy="52" r="9" fill="#ffd9a1" stroke="#1a0f2e" stroke-width="5"/><line x1="90" y1="96" x2="66" y2="40" stroke="#1a0f2e" stroke-width="12" stroke-linecap="round"/><line x1="90" y1="96" x2="66" y2="40" stroke="#ffd9a1" stroke-width="7" stroke-linecap="round"/><circle cx="66" cy="40" r="9" fill="#ffd9a1" stroke="#1a0f2e" stroke-width="5"/><line x1="166" y1="96" x2="190" y2="40" stroke="#1a0f2e" stroke-width="12" stroke-linecap="round"/><line x1="166" y1="96" x2="190" y2="40" stroke="#ffd9a1" stroke-width="7" stroke-linecap="round"/><circle cx="190" cy="40" r="9" fill="#ffd9a1" stroke="#1a0f2e" stroke-width="5"/><path d="M96 96 q6 -20 16 -24 q-2 14 4 18 q8 -10 14 -8 q-4 10 2 14 z" fill="#ffd23e" stroke="#1a0f2e" stroke-width="5" stroke-linejoin="round"/><rect x="64" y="106" width="128" height="92" fill="url(#g-boss-4)" stroke="#1a0f2e" stroke-width="7"/><ellipse cx="128" cy="198" rx="64" ry="19.2" fill="url(#g-boss-4)" stroke="#1a0f2e" stroke-width="7"/><rect x="64" y="106" width="128" height="55.199999999999996" fill="url(#g-boss-4)"/><ellipse cx="128" cy="106" rx="64" ry="19.2" fill="#ffe8c8" stroke="#1a0f2e" stroke-width="7"/><path d="M64 112 l16 80 l16 -80 l16 80 l16 -80 l16 80 l16 -80 l16 80 l16 -80" fill="none" stroke="#ffd23e" stroke-width="5" stroke-linejoin="round"/><path d="M89 128 L115 143" stroke="#701e08" stroke-width="9" stroke-linecap="round"/><path d="M167 128 L141 143" stroke="#701e08" stroke-width="9" stroke-linecap="round"/><ellipse cx="104" cy="152" rx="14" ry="16" fill="#fff" stroke="#1a0f2e" stroke-width="5"/><circle cx="106" cy="154" r="7" fill="#1a0f2e"/><circle cx="103.5" cy="151.2" r="2.4" fill="#fff"/><ellipse cx="152" cy="152" rx="14" ry="16" fill="#fff" stroke="#1a0f2e" stroke-width="5"/><circle cx="154" cy="154" r="7" fill="#1a0f2e"/><circle cx="151.6" cy="151.2" r="2.4" fill="#fff"/><path d="M108 184 l10 10 l10 -10 l10 10 l10 -10" fill="none" stroke="#1a0f2e" stroke-width="6" stroke-linecap="round" stroke-linejoin="round"/>
</svg>
