<svg xmlns="http://www.w3.org/2000/svg" viewBox="0 0 256 256">
<defs><radialGradient id="g-boss-10" cx="38%" cy="32%" r="80%"><stop offset="0%" stop-color="#ffdd66"/><stop offset="100%" stop-color="#ff9d1a"/></radialGradient></defs><circle cx="128" cy="138" r="106" fill="#ffe98f" opacity="0.22"/><ellipse cx="128" cy="236" rx="66" ry="12" fill="#ffd23e" opacity="0.35"/><path d="M66 112 Q128 94 190 112 L204 224 Q128 240 52 224 Z" fill="#7b2ff7" stroke="#1a0f2e" stroke-width="6" stroke-linejoin="round"/><line x1="196" y1="88" x2="212" y2="176" stroke="#1a0f2e" stroke-width="11" stroke-linecap="round"/><line x1="196" y1="88" x2="212" y2="176" stroke="#ffd23e" stroke-width="6" stroke-linecap="round"/><circle cx="194" cy="80" r="12" fill="#ff3ea5" stroke="#1a0f2e" stroke-width="5"/><circle cx="128" cy="144" r="68" fill="url(#g-boss-10)" stroke="#1a0f2e" stroke-width="7"/><ellipse cx="104.2" cy="106.6" rx="24.48" ry="13.600000000000001" fill="#fff" opacity="0.25" transform="rotate(-24 104.2 106.6)"/><path d="M98 84 l6.6 -31.200000000000003 l10.200000000000001 19.344 l13.2 -29.64 l13.2 29.64 l10.200000000000001 -19.344 l6.6 31.200000000000003 z" fill="#ffd23e" stroke="#1a0f2e" stroke-width="6" stroke-linejoin="round"/><circle cx="128" cy="77.76" r="4.8" fill="#ff3ea5" stroke="#1a0f2e" stroke-width="3"/><circle cx="106" cy="196" r="5" fill="#ff3ea5" stroke="#1a0f2e" stroke-width="3"/><circle cx="128" cy="202" r="5" fill="#2ff7e6" stroke="#1a0f2e" stroke-width="3"/><circle cx="150" cy="196" r="5" fill="#ff3ea5" stroke="#1a0f2e" stroke-width="3"/><path d="M96 124 q10 -10 22 -2 M138 122 q12 -8 22 2" fill="none" stroke="#1a0f2e" stroke-width="6" stroke-linecap="round"/><ellipse cx="104" cy="138" rx="14" ry="16" fill="#fff" stroke="#1a0f2e" stroke-width="5"/><circle cx="106" cy="139" r="7" fill="#1a0f2e"/><circle cx="103.5" cy="136.2" r="2.4" fill="#fff"/><ellipse cx="152" cy="138" rx="14" ry="16" fill="#fff" stroke="#1a0f2e" stroke-width="5"/><circle cx="154" cy="139" r="7" fill="#1a0f2e"/><circle cx="151.6" cy="136.2" r="2.4" fill="#fff"/><path d="M115 168 Q128 180 141 168" fill="none" stroke="#1a0f2e" stroke-width="6" stroke-linecap="round"/><circle cx="84" cy="162" r="9" fill="#ff9ad2" opacity="0.5"/><circle cx="172" cy="162" r="9" fill="#ff9ad2" opacity="0.5"/>
</svg>
