<svg xmlns="http://www.w3.org/2000/svg" viewBox="0 0 256 256">
<defs><radialGradient id="g-boss-12" cx="38%" cy="32%" r="80%"><stop offset="0%" stop-color="#ff6ec0"/><stop offset="100%" stop-color="#d61a7f"/></radialGradient></defs><circle cx="128" cy="138" r="108" fill="#ff8ccb" opacity="0.22"/><ellipse cx="128" cy="236" rx="66" ry="12" fill="#ff3ea5" opacity="0.35"/><g fill="none" stroke="#2ff7e6" stroke-width="6" stroke-linecap="round" opacity="0.85"><path d="M36 116 q-14 24 0 48"/><path d="M20 104 q-22 36 0 72"/><path d="M220 116 q14 24 0 48"/><path d="M236 104 q22 36 0 72"/></g><path transform="translate(38 74) scale(0.6)" d="M3 -24 L-11 4 L-3 4 L-7 24 L11 -5 L3 -5 Z" fill="#ffd23e" stroke="#1a0f2e" stroke-width="8.3" stroke-linejoin="round"/><path transform="translate(218 74) scale(0.6)" d="M3 -24 L-11 4 L-3 4 L-7 24 L11 -5 L3 -5 Z" fill="#ffd23e" stroke="#1a0f2e" stroke-width="8.3" stroke-linejoin="round"/><circle cx="128" cy="144" r="70" fill="url(#g-boss-12)" stroke="#1a0f2e" stroke-width="7"/><ellipse cx="103.5" cy="105.5" rx="25.2" ry="14" fill="#fff" opacity="0.25" transform="rotate(-24 103.5 105.5)"/><path d="M97 82 l6.82 -32.24 l10.540000000000001 19.9888 l13.64 -30.628 l13.64 30.628 l10.540000000000001 -19.9888 l6.82 32.24 z" fill="#ffd23e" stroke="#1a0f2e" stroke-width="6" stroke-linejoin="round"/><circle cx="128" cy="75.55199999999999" r="4.96" fill="#2ff7e6" stroke="#1a0f2e" stroke-width="3"/><g stroke="#1a0f2e" stroke-width="4" stroke-linecap="round"><path d="M88 122 l-10 -7 M96 116 l-8 -9 M160 116 l8 -9 M168 122 l10 -7"/></g><path d="M96 126 q10 -8 22 -2 M138 124 q12 -6 22 2" fill="none" stroke="#1a0f2e" stroke-width="6" stroke-linecap="round"/><ellipse cx="102" cy="140" rx="15" ry="17" fill="#fff" stroke="#1a0f2e" stroke-width="5"/><circle cx="104" cy="141" r="8" fill="#1a0f2e"/><circle cx="101.2" cy="137.8" r="2.6" fill="#fff"/><ellipse cx="154" cy="140" rx="15" ry="17" fill="#fff" stroke="#1a0f2e" stroke-width="5"/><circle cx="156" cy="141" r="8" fill="#1a0f2e"/><circle cx="153.2" cy="137.8" r="2.6" fill="#fff"/><polygon points="88.0,160.0 90.0,165.2 95.6,165.5 91.2,169.1 92.7,174.5 88.0,171.4 83.3,174.5 84.8,169.1 80.4,165.5 86.0,165.2" fill="#ffd23e" stroke="#1a0f2e" stroke-width="6" stroke-linejoin="round" /><polygon points="168.0,160.0 170.0,165.2 175.6,165.5 171.2,169.1 172.7,174.5 168.0,171.4 163.3,174.5 164.8,169.1 160.4,165.5 166.0,165.2" fill="#ffd23e" stroke="#1a0f2e" stroke-width="6" stroke-linejoin="round" /><path d="M114 170 Q128 184 142 170" fill="none" stroke="#1a0f2e" stroke-width="6" stroke-linecap="round"/><path d="M104 168 l6 13 l6 -13 z" fill="#fff" stroke="#1a0f2e" stroke-width="3.5" stroke-linejoin="round"/><path d="M140 168 l6 13 l6 -13 z" fill="#fff" stroke="#1a0f2e" stroke-width="3.5" stroke-linejoin="round"/>
</svg>
