<svg xmlns="http://www.w3.org/2000/svg" viewBox="0 0 256 256">
<defs></defs><circle cx="128" cy="138" r="108" fill="#ff3ea5" opacity="0.16"/><ellipse cx="128" cy="236" rx="66" ry="12" fill="#ff3ea5" opacity="0.35"/><path d="M28 128 q-6 -14 0 -22 q6 8 0 22" fill="#ffd23e" stroke="#1a0f2e" stroke-width="3" opacity="0.9"/><path d="M36 95 q-6 -14 0 -22 q6 8 0 22" fill="#2ff7e6" stroke="#1a0f2e" stroke-width="3" opacity="0.9"/><path d="M57 67 q-6 -14 0 -22 q6 8 0 22" fill="#ffd23e" stroke="#1a0f2e" stroke-width="3" opacity="0.9"/><path d="M90 49 q-6 -14 0 -22 q6 8 0 22" fill="#2ff7e6" stroke="#1a0f2e" stroke-width="3" opacity="0.9"/><path d="M128 42 q-6 -14 0 -22 q6 8 0 22" fill="#ffd23e" stroke="#1a0f2e" stroke-width="3" opacity="0.9"/><path d="M166 49 q-6 -14 0 -22 q6 8 0 22" fill="#2ff7e6" stroke="#1a0f2e" stroke-width="3" opacity="0.9"/><path d="M199 67 q-6 -14 0 -22 q6 8 0 22" fill="#ffd23e" stroke="#1a0f2e" stroke-width="3" opacity="0.9"/><path d="M220 95 q-6 -14 0 -22 q6 8 0 22" fill="#2ff7e6" stroke="#1a0f2e" stroke-width="3" opacity="0.9"/><path d="M228 128 q-6 -14 0 -22 q6 8 0 22" fill="#ffd23e" stroke="#1a0f2e" stroke-width="3" opacity="0.9"/><path d="M74.32 188.8 q-36.6 34.16 -7.32 46.36 q24.4 9.76 31.72 -12.2" fill="none" stroke="#1a0f2e" stroke-width="11" stroke-linecap="round"/><path d="M74.32 188.8 q-36.6 34.16 -7.32 46.36 q24.4 9.76 31.72 -12.2" fill="none" stroke="#2e2440" stroke-width="6" stroke-linecap="round"/><polygon points="76.75999999999999,98.52000000000001 71.88,49.72 113.36,79" fill="#2e2440" stroke="#1a0f2e" stroke-width="6" stroke-linejoin="round"/><polygon points="179.24,98.52000000000001 184.12,49.72 142.64,79" fill="#2e2440" stroke="#1a0f2e" stroke-width="6" stroke-linejoin="round"/><polygon points="82.86,91.2 79.2,61.92 103.6,80.22" fill="#ff3ea5"/><polygon points="173.14,91.2 176.8,61.92 152.4,80.22" fill="#ff3ea5"/><circle cx="128" cy="140" r="63.44" fill="#2e2440" stroke="#1a0f2e" stroke-width="7"/><ellipse cx="105.796" cy="105.108" rx="22.8384" ry="12.688" fill="#fff" opacity="0.25" transform="rotate(-24 105.796 105.108)"/><ellipse cx="102" cy="132" rx="15" ry="15.75" fill="#ffd23e" stroke="#1a0f2e" stroke-width="4"/><path d="M87 118.5 L117 129" stroke="#1a0f2e" stroke-width="6" stroke-linecap="round" transform="scale(1,1) translate(0,0)"/><ellipse cx="102" cy="132" rx="4.2" ry="12" fill="#1a0f2e"/><circle cx="98.25" cy="126.75" r="2.6" fill="#fff"/><ellipse cx="154" cy="132" rx="15" ry="15.75" fill="#ffd23e" stroke="#1a0f2e" stroke-width="4"/><path d="M139 118.5 L169 129" stroke="#1a0f2e" stroke-width="6" stroke-linecap="round" transform="scale(-1,1) translate(-308,0)"/><ellipse cx="154" cy="132" rx="4.2" ry="12" fill="#1a0f2e"/><circle cx="150.25" cy="126.75" r="2.6" fill="#fff"/><path d="M128 157.07999999999998 l-6 8 h12 z" fill="#ff3ea5" stroke="#1a0f2e" stroke-width="3" stroke-linejoin="round"/><path d="M128 166.84 q-8 10 -18 6 M128 166.84 q8 10 18 6" fill="none" stroke="#1a0f2e" stroke-width="5" stroke-linecap="round"/><g stroke="#cbb3ff" stroke-width="3.5" stroke-linecap="round" opacity="0.9"><path d="M64.56 146 h-26 M64.56 158 l-24 8"/><path d="M191.44 146 h26 M191.44 158 l24 8"/></g><path d="M108 178 l6 13 l6 -13 z" fill="#fff" stroke="#1a0f2e" stroke-width="3.5" stroke-linejoin="round"/><path d="M136 178 l6 13 l6 -13 z" fill="#fff" stroke="#1a0f2e" stroke-width="3.5" stroke-linejoin="round"/>
</svg>
