<svg xmlns="http://www.w3.org/2000/svg" viewBox="0 0 256 256">
<defs><radialGradient id="g-boss-3" cx="38%" cy="32%" r="80%"><stop offset="0%" stop-color="#ff5cb4"/><stop offset="100%" stop-color="#c9186f"/></radialGradient><radialGradient id="v-boss-3" cx="38%" cy="32%" r="80%"><stop offset="0%" stop-color="#7cf9ec"/><stop offset="100%" stop-color="#188fa8"/></radialGradient></defs><circle cx="128" cy="138" r="104" fill="#ff8ccb" opacity="0.22"/><ellipse cx="128" cy="236" rx="66" ry="12" fill="#ff3ea5" opacity="0.35"/><circle cx="128" cy="140" r="70" fill="url(#g-boss-3)" stroke="#1a0f2e" stroke-width="7"/><ellipse cx="103.5" cy="101.5" rx="25.2" ry="14" fill="#fff" opacity="0.25" transform="rotate(-24 103.5 101.5)"/><path d="M54 112 A74 74 0 0 1 202 112" fill="none" stroke="#1a0f2e" stroke-width="12" stroke-linecap="round"/><rect x="41" y="104" width="24" height="38" rx="9" fill="#ffd23e" stroke="#1a0f2e" stroke-width="6"/><rect x="191" y="104" width="24" height="38" rx="9" fill="#ffd23e" stroke="#1a0f2e" stroke-width="6"/><g stroke="#1a0f2e" stroke-width="4"><ellipse cx="206" cy="76" rx="8" ry="6.5" fill="#2ff7e6"/><path d="M213 76 V50 q10 2 14 10" fill="none" stroke-linecap="round"/></g><g stroke="#1a0f2e" stroke-width="4"><ellipse cx="52" cy="96" rx="8" ry="6.5" fill="#ffd23e"/><path d="M59 96 V70 q10 2 14 10" fill="none" stroke-linecap="round"/></g><rect x="84" y="116" width="88" height="32" rx="12" fill="url(#v-boss-3)" stroke="#1a0f2e" stroke-width="6"/><path d="M96 132 l20 -8 M140 124 l20 8" stroke="#fff" stroke-width="6" stroke-linecap="round"/><polygon points="128,168 114,190 142,190" fill="#ffd23e" stroke="#1a0f2e" stroke-width="5" stroke-linejoin="round"/><path d="M128 196 Q128 196 128 196" fill="none" stroke="#1a0f2e" stroke-width="6" stroke-linecap="round"/><path d="M104 160 l6 13 l6 -13 z" fill="#fff" stroke="#1a0f2e" stroke-width="3.5" stroke-linejoin="round"/><path d="M140 160 l6 13 l6 -13 z" fill="#fff" stroke="#1a0f2e" stroke-width="3.5" stroke-linejoin="round"/>
</svg>
