<svg xmlns="http://www.w3.org/2000/svg" viewBox="0 0 256 256">
<defs><radialGradient id="g-boss-8" cx="38%" cy="32%" r="80%"><stop offset="0%" stop-color="#8a3af0"/><stop offset="100%" stop-color="#3d0d85"/></radialGradient></defs><circle cx="128" cy="138" r="106" fill="#a05cff" opacity="0.22"/><ellipse cx="128" cy="236" rx="66" ry="12" fill="#7b2ff7" opacity="0.35"/><g stroke="#cbb3ff" stroke-width="3" opacity="0.6" fill="none"><path d="M8 8 Q70 30 96 74"/><path d="M8 60 Q56 66 88 96"/><path d="M56 6 Q80 40 108 62"/></g><path d="M68 124 Q19.5 101.5 7 144" fill="none" stroke="#1a0f2e" stroke-width="11" stroke-linecap="round"/><path d="M68 124 Q19.5 101.5 7 144" fill="none" stroke="#8a5cf0" stroke-width="5.5" stroke-linecap="round"/><path d="M68 141.5 Q19.5 115 7 157.5" fill="none" stroke="#1a0f2e" stroke-width="11" stroke-linecap="round"/><path d="M68 141.5 Q19.5 115 7 157.5" fill="none" stroke="#8a5cf0" stroke-width="5.5" stroke-linecap="round"/><path d="M68 159 Q19.5 128.5 7 171" fill="none" stroke="#1a0f2e" stroke-width="11" stroke-linecap="round"/><path d="M68 159 Q19.5 128.5 7 171" fill="none" stroke="#8a5cf0" stroke-width="5.5" stroke-linecap="round"/><path d="M68 176.5 Q19.5 142 7 184.5" fill="none" stroke="#1a0f2e" stroke-width="11" stroke-linecap="round"/><path d="M68 176.5 Q19.5 142 7 184.5" fill="none" stroke="#8a5cf0" stroke-width="5.5" stroke-linecap="round"/><path d="M188 124 Q236.5 101.5 249 144" fill="none" stroke="#1a0f2e" stroke-width="11" stroke-linecap="round"/><path d="M188 124 Q236.5 101.5 249 144" fill="none" stroke="#8a5cf0" stroke-width="5.5" stroke-linecap="round"/><path d="M188 141.5 Q236.5 115 249 157.5" fill="none" stroke="#1a0f2e" stroke-width="11" stroke-linecap="round"/><path d="M188 141.5 Q236.5 115 249 157.5" fill="none" stroke="#8a5cf0" stroke-width="5.5" stroke-linecap="round"/><path d="M188 159 Q236.5 128.5 249 171" fill="none" stroke="#1a0f2e" stroke-width="11" stroke-linecap="round"/><path d="M188 159 Q236.5 128.5 249 171" fill="none" stroke="#8a5cf0" stroke-width="5.5" stroke-linecap="round"/><path d="M188 176.5 Q236.5 142 249 184.5" fill="none" stroke="#1a0f2e" stroke-width="11" stroke-linecap="round"/><path d="M188 176.5 Q236.5 142 249 184.5" fill="none" stroke="#8a5cf0" stroke-width="5.5" stroke-linecap="round"/><circle cx="128" cy="144" r="66" fill="url(#g-boss-8)" stroke="#1a0f2e" stroke-width="7"/><ellipse cx="104.9" cy="107.69999999999999" rx="23.759999999999998" ry="13.200000000000001" fill="#fff" opacity="0.25" transform="rotate(-24 104.9 107.69999999999999)"/><path d="M104 84 l5.28 -24.96 l8.16 15.475200000000001 l10.56 -23.712 l10.56 23.712 l8.16 -15.475200000000001 l5.28 24.96 z" fill="#ffd23e" stroke="#1a0f2e" stroke-width="6" stroke-linejoin="round"/><circle cx="128" cy="79.008" r="4" fill="#ff3ea5" stroke="#1a0f2e" stroke-width="3"/><circle cx="98" cy="116" r="7" fill="#ff3ea5" stroke="#1a0f2e" stroke-width="3.5"/><circle cx="158" cy="116" r="7" fill="#ff3ea5" stroke="#1a0f2e" stroke-width="3.5"/><circle cx="112" cy="106" r="5" fill="#ff3ea5" stroke="#1a0f2e" stroke-width="3"/><circle cx="144" cy="106" r="5" fill="#ff3ea5" stroke="#1a0f2e" stroke-width="3"/><path d="M93 118 L115 133" stroke="#2a0655" stroke-width="7" stroke-linecap="round"/><path d="M163 118 L141 133" stroke="#2a0655" stroke-width="7" stroke-linecap="round"/><ellipse cx="104" cy="144" rx="14" ry="16" fill="#fff" stroke="#1a0f2e" stroke-width="5"/><circle cx="106" cy="146" r="7" fill="#1a0f2e"/><circle cx="103.5" cy="143.2" r="2.4" fill="#fff"/><ellipse cx="152" cy="144" rx="14" ry="16" fill="#fff" stroke="#1a0f2e" stroke-width="5"/><circle cx="154" cy="146" r="7" fill="#1a0f2e"/><circle cx="151.6" cy="143.2" r="2.4" fill="#fff"/><path d="M106 172 l6 13 l6 -13 z" fill="#fff" stroke="#1a0f2e" stroke-width="3.5" stroke-linejoin="round"/><path d="M138 172 l6 13 l6 -13 z" fill="#fff" stroke="#1a0f2e" stroke-width="3.5" stroke-linejoin="round"/><path d="M117 170 Q128 180 139 170" fill="none" stroke="#1a0f2e" stroke-width="6" stroke-linecap="round"/>
</svg>
