<svg xmlns="http://www.w3.org/2000/svg" viewBox="0 0 256 256">
<defs><radialGradient id="g-boss-1" cx="38%" cy="32%" r="80%"><stop offset="0%" stop-color="#a75dff"/><stop offset="100%" stop-color="#5a18c9"/></radialGradient></defs><circle cx="128" cy="138" r="104" fill="#c793ff" opacity="0.22"/><ellipse cx="128" cy="236" rx="66" ry="12" fill="#7b2ff7" opacity="0.35"/><g transform="rotate(-30 56 108)"><ellipse cx="56" cy="108" rx="32" ry="56" fill="#e3ccff" stroke="#1a0f2e" stroke-width="6" opacity="0.95"/><ellipse cx="56" cy="116.4" rx="14.4" ry="28" fill="#fff" opacity="0.35"/></g><g transform="rotate(30 200 108)"><ellipse cx="200" cy="108" rx="32" ry="56" fill="#e3ccff" stroke="#1a0f2e" stroke-width="6" opacity="0.95"/><ellipse cx="200" cy="116.4" rx="14.4" ry="28" fill="#fff" opacity="0.35"/></g><g transform="rotate(-55 62 164)"><ellipse cx="62" cy="164" rx="24" ry="40" fill="#d7b8ff" stroke="#1a0f2e" stroke-width="6" opacity="0.95"/><ellipse cx="62" cy="170" rx="10.8" ry="20" fill="#fff" opacity="0.35"/></g><g transform="rotate(55 194 164)"><ellipse cx="194" cy="164" rx="24" ry="40" fill="#d7b8ff" stroke="#1a0f2e" stroke-width="6" opacity="0.95"/><ellipse cx="194" cy="170" rx="10.8" ry="20" fill="#fff" opacity="0.35"/></g><path d="M108 76 Q100 52 106 38" fill="none" stroke="#1a0f2e" stroke-width="5" stroke-linecap="round"/><path d="M148 76 Q156 52 150 38" fill="none" stroke="#1a0f2e" stroke-width="5" stroke-linecap="round"/><polygon points="104.0,21.0 106.6,28.4 114.5,28.6 108.3,33.4 110.5,40.9 104.0,36.5 97.5,40.9 99.7,33.4 93.5,28.6 101.4,28.4" fill="#ffd23e" stroke="#1a0f2e" stroke-width="6" stroke-linejoin="round" /><polygon points="152.0,21.0 154.6,28.4 162.5,28.6 156.3,33.4 158.5,40.9 152.0,36.5 145.5,40.9 147.7,33.4 141.5,28.6 149.4,28.4" fill="#2ff7e6" stroke="#1a0f2e" stroke-width="6" stroke-linejoin="round" /><circle cx="128" cy="140" r="70" fill="url(#g-boss-1)" stroke="#1a0f2e" stroke-width="7"/><ellipse cx="103.5" cy="101.5" rx="25.2" ry="14" fill="#fff" opacity="0.25" transform="rotate(-24 103.5 101.5)"/><path d="M102 78 l5.72 -27.04 l8.84 16.7648 l11.44 -25.688 l11.44 25.688 l8.84 -16.7648 l5.72 27.04 z" fill="#ffd23e" stroke="#1a0f2e" stroke-width="6" stroke-linejoin="round"/><circle cx="128" cy="72.592" r="4.16" fill="#ff3ea5" stroke="#1a0f2e" stroke-width="3"/><path d="M89 104 L115 119" stroke="#3d1470" stroke-width="9" stroke-linecap="round"/><path d="M167 104 L141 119" stroke="#3d1470" stroke-width="9" stroke-linecap="round"/><ellipse cx="101" cy="132" rx="16" ry="18" fill="#fff" stroke="#1a0f2e" stroke-width="5"/><circle cx="103" cy="134" r="8" fill="#1a0f2e"/><circle cx="100.2" cy="130.8" r="2.6" fill="#fff"/><ellipse cx="155" cy="132" rx="16" ry="18" fill="#fff" stroke="#1a0f2e" stroke-width="5"/><circle cx="157" cy="134" r="8" fill="#1a0f2e"/><circle cx="154.2" cy="130.8" r="2.6" fill="#fff"/><path d="M113 166 Q128 180 143 166" fill="none" stroke="#1a0f2e" stroke-width="6" stroke-linecap="round"/><path d="M98 162 l6 13 l6 -13 z" fill="#fff" stroke="#1a0f2e" stroke-width="3.5" stroke-linejoin="round"/><path d="M146 162 l6 13 l6 -13 z" fill="#fff" stroke="#1a0f2e" stroke-width="3.5" stroke-linejoin="round"/><circle cx="80" cy="158" r="9" fill="#ff6ec0" opacity="0.5"/><circle cx="176" cy="158" r="9" fill="#ff6ec0" opacity="0.5"/>
</svg>
