<svg xmlns="http://www.w3.org/2000/svg" viewBox="0 0 256 256">
<defs><radialGradient id="g-boss-5" cx="38%" cy="32%" r="80%"><stop offset="0%" stop-color="#ffdd66"/><stop offset="100%" stop-color="#ff9d1a"/></radialGradient></defs><circle cx="128" cy="138" r="106" fill="#ffe98f" opacity="0.22"/><ellipse cx="128" cy="236" rx="66" ry="12" fill="#ffd23e" opacity="0.35"/><polygon points="128.0,44.0 155.0,104.8 221.2,111.7 171.7,156.2 185.6,221.3 128.0,188.0 70.4,221.3 84.3,156.2 34.8,111.7 101.0,104.8" fill="url(#g-boss-5)" stroke="#1a0f2e" stroke-width="7" stroke-linejoin="round" /><path d="M106 66 l4.84 -22.880000000000003 l7.48 14.1856 l9.68 -21.736 l9.68 21.736 l7.48 -14.1856 l4.84 22.880000000000003 z" fill="#ffd23e" stroke="#1a0f2e" stroke-width="6" stroke-linejoin="round"/><circle cx="128" cy="61.424" r="4" fill="#ff3ea5" stroke="#1a0f2e" stroke-width="3"/><rect x="88" y="122" width="34" height="24" rx="9" fill="#1a0f2e"/><rect x="134" y="122" width="34" height="24" rx="9" fill="#1a0f2e"/><path d="M122 130 h12" stroke="#1a0f2e" stroke-width="6"/><path d="M94 128 l10 6 M140 128 l10 6" stroke="#b98cff" stroke-width="4" stroke-linecap="round"/><path d="M115 164 Q128 176 141 164" fill="none" stroke="#1a0f2e" stroke-width="6" stroke-linecap="round"/><circle cx="88" cy="158" r="9" fill="#ff9ad2" opacity="0.5"/><circle cx="168" cy="158" r="9" fill="#ff9ad2" opacity="0.5"/><polygon points="196.0,86.0 198.4,92.8 205.5,92.9 199.8,97.2 201.9,104.1 196.0,100.0 190.1,104.1 192.2,97.2 186.5,92.9 193.6,92.8" fill="#ff3ea5" stroke="#1a0f2e" stroke-width="6" stroke-linejoin="round" /><polygon points="60.0,92.0 62.0,97.2 67.6,97.5 63.2,101.1 64.7,106.5 60.0,103.4 55.3,106.5 56.8,101.1 52.4,97.5 58.0,97.2" fill="#2ff7e6" stroke="#1a0f2e" stroke-width="6" stroke-linejoin="round" />
</svg>
