<svg xmlns="http://www.w3.org/2000/svg" viewBox="0 0 256 256">
<defs><radialGradient id="g-inimigo-3" cx="38%" cy="32%" r="80%"><stop offset="0%" stop-color="#ff8ccb"/><stop offset="100%" stop-color="#ff3ea5"/></radialGradient></defs><ellipse cx="128" cy="236" rx="66" ry="10" fill="#ff3ea5" opacity="0.35"/><circle cx="128" cy="140" r="58" fill="url(#g-inimigo-3)" stroke="#1a0f2e" stroke-width="7"/><ellipse cx="107.7" cy="108.1" rx="20.88" ry="11.600000000000001" fill="#fff" opacity="0.25" transform="rotate(-24 107.7 108.1)"/><path d="M66 118 A62 62 0 0 1 190 118" fill="none" stroke="#1a0f2e" stroke-width="12" stroke-linecap="round"/><rect x="53" y="110" width="24" height="38" rx="9" fill="#2ff7e6" stroke="#1a0f2e" stroke-width="6"/><rect x="179" y="110" width="24" height="38" rx="9" fill="#2ff7e6" stroke="#1a0f2e" stroke-width="6"/><g stroke="#1a0f2e" stroke-width="4"><ellipse cx="200" cy="84" rx="8" ry="6.5" fill="#2ff7e6"/><path d="M207 84 V58 q10 2 14 10" fill="none" stroke-linecap="round"/></g><ellipse cx="104" cy="132" rx="15" ry="17" fill="#fff" stroke="#1a0f2e" stroke-width="5"/><circle cx="106" cy="134" r="8" fill="#1a0f2e"/><circle cx="103.2" cy="130.8" r="2.6" fill="#fff"/><ellipse cx="152" cy="132" rx="15" ry="17" fill="#fff" stroke="#1a0f2e" stroke-width="5"/><circle cx="154" cy="134" r="8" fill="#1a0f2e"/><circle cx="151.2" cy="130.8" r="2.6" fill="#fff"/><path d="M114 162 Q128 181.6 142 162 Q128 166 114 162 Z" fill="#5a1030" stroke="#1a0f2e" stroke-width="5" stroke-linejoin="round"/><circle cx="84" cy="156" r="9" fill="#ffd23e" opacity="0.5"/><circle cx="172" cy="156" r="9" fill="#ffd23e" opacity="0.5"/>
</svg>
