<svg xmlns="http://www.w3.org/2000/svg" viewBox="0 0 256 256">
<defs><radialGradient id="g-inimigo-1" cx="38%" cy="32%" r="80%"><stop offset="0%" stop-color="#c793ff"/><stop offset="100%" stop-color="#7b2ff7"/></radialGradient></defs><ellipse cx="128" cy="236" rx="66" ry="10" fill="#7b2ff7" opacity="0.35"/><g transform="rotate(-28 70 118)"><ellipse cx="70" cy="118" rx="26" ry="44" fill="#e3ccff" stroke="#1a0f2e" stroke-width="6" opacity="0.95"/><ellipse cx="70" cy="124.6" rx="11.700000000000001" ry="22" fill="#fff" opacity="0.35"/></g><g transform="rotate(28 186 118)"><ellipse cx="186" cy="118" rx="26" ry="44" fill="#e3ccff" stroke="#1a0f2e" stroke-width="6" opacity="0.95"/><ellipse cx="186" cy="124.6" rx="11.700000000000001" ry="22" fill="#fff" opacity="0.35"/></g><g transform="rotate(-50 78 160)"><ellipse cx="78" cy="160" rx="18" ry="30" fill="#d7b8ff" stroke="#1a0f2e" stroke-width="6" opacity="0.95"/><ellipse cx="78" cy="164.5" rx="8.1" ry="15" fill="#fff" opacity="0.35"/></g><g transform="rotate(50 178 160)"><ellipse cx="178" cy="160" rx="18" ry="30" fill="#d7b8ff" stroke="#1a0f2e" stroke-width="6" opacity="0.95"/><ellipse cx="178" cy="164.5" rx="8.1" ry="15" fill="#fff" opacity="0.35"/></g><path d="M128 84 Q120 60 128 46" fill="none" stroke="#1a0f2e" stroke-width="5" stroke-linecap="round"/><polygon points="128.0,27.0 131.2,35.6 140.4,36.0 133.2,41.7 135.6,50.5 128.0,45.5 120.4,50.5 122.8,41.7 115.6,36.0 124.8,35.6" fill="#ffd23e" stroke="#1a0f2e" stroke-width="6" stroke-linejoin="round" /><circle cx="128" cy="140" r="58" fill="url(#g-inimigo-1)" stroke="#1a0f2e" stroke-width="7"/><ellipse cx="107.7" cy="108.1" rx="20.88" ry="11.600000000000001" fill="#fff" opacity="0.25" transform="rotate(-24 107.7 108.1)"/><ellipse cx="104" cy="130" rx="15" ry="17" fill="#fff" stroke="#1a0f2e" stroke-width="5"/><circle cx="106" cy="132" r="8" fill="#1a0f2e"/><circle cx="103.2" cy="128.8" r="2.6" fill="#fff"/><ellipse cx="152" cy="130" rx="15" ry="17" fill="#fff" stroke="#1a0f2e" stroke-width="5"/><circle cx="154" cy="132" r="8" fill="#1a0f2e"/><circle cx="151.2" cy="128.8" r="2.6" fill="#fff"/><path d="M115 162 Q128 174 141 162" fill="none" stroke="#1a0f2e" stroke-width="6" stroke-linecap="round"/><path d="M102 158 l6 13 l6 -13 z" fill="#fff" stroke="#1a0f2e" stroke-width="3.5" stroke-linejoin="round"/><path d="M142 158 l6 13 l6 -13 z" fill="#fff" stroke="#1a0f2e" stroke-width="3.5" stroke-linejoin="round"/><circle cx="86" cy="154" r="9" fill="#ff9ad2" opacity="0.5"/><circle cx="170" cy="154" r="9" fill="#ff9ad2" opacity="0.5"/>
</svg>
