<svg xmlns="http://www.w3.org/2000/svg" viewBox="0 0 256 256">
<defs><radialGradient id="g-inimigo-4" cx="38%" cy="32%" r="80%"><stop offset="0%" stop-color="#ff8a5e"/><stop offset="100%" stop-color="#e0421f"/></radialGradient></defs><ellipse cx="128" cy="236" rx="66" ry="10" fill="#ff5a3e" opacity="0.35"/><line x1="88" y1="104" x2="52" y2="64" stroke="#1a0f2e" stroke-width="12" stroke-linecap="round"/><line x1="88" y1="104" x2="52" y2="64" stroke="#ffd9a1" stroke-width="7" stroke-linecap="round"/><circle cx="52" cy="64" r="9" fill="#ffd9a1" stroke="#1a0f2e" stroke-width="5"/><line x1="168" y1="104" x2="204" y2="64" stroke="#1a0f2e" stroke-width="12" stroke-linecap="round"/><line x1="168" y1="104" x2="204" y2="64" stroke="#ffd9a1" stroke-width="7" stroke-linecap="round"/><circle cx="204" cy="64" r="9" fill="#ffd9a1" stroke="#1a0f2e" stroke-width="5"/><rect x="74" y="112" width="108" height="78" fill="url(#g-inimigo-4)" stroke="#1a0f2e" stroke-width="7"/><ellipse cx="128" cy="190" rx="54" ry="16.2" fill="url(#g-inimigo-4)" stroke="#1a0f2e" stroke-width="7"/><rect x="74" y="112" width="108" height="46.8" fill="url(#g-inimigo-4)"/><ellipse cx="128" cy="112" rx="54" ry="16.2" fill="#ffe8c8" stroke="#1a0f2e" stroke-width="7"/><path d="M74 118 l13.5 66 l13.5 -66 l13.5 66 l13.5 -66 l13.5 66 l13.5 -66 l13.5 66 l13.5 -66" fill="none" stroke="#ffd23e" stroke-width="5" stroke-linejoin="round"/><ellipse cx="106" cy="148" rx="13" ry="15" fill="#fff" stroke="#1a0f2e" stroke-width="5"/><circle cx="108" cy="150" r="7" fill="#1a0f2e"/><circle cx="105.5" cy="147.2" r="2.4" fill="#fff"/><ellipse cx="150" cy="148" rx="13" ry="15" fill="#fff" stroke="#1a0f2e" stroke-width="5"/><circle cx="152" cy="150" r="7" fill="#1a0f2e"/><circle cx="149.6" cy="147.2" r="2.4" fill="#fff"/><path d="M116 174 Q128 190.8 140 174 Q128 178 116 174 Z" fill="#5a1030" stroke="#1a0f2e" stroke-width="5" stroke-linejoin="round"/><circle cx="88" cy="168" r="9" fill="#ffd23e" opacity="0.5"/><circle cx="168" cy="168" r="9" fill="#ffd23e" opacity="0.5"/>
</svg>
