<svg xmlns="http://www.w3.org/2000/svg" viewBox="0 0 256 256">
<defs><radialGradient id="g-inimigo-8" cx="38%" cy="32%" r="80%"><stop offset="0%" stop-color="#a05cff"/><stop offset="100%" stop-color="#5c15c4"/></radialGradient></defs><ellipse cx="128" cy="236" rx="66" ry="10" fill="#7b2ff7" opacity="0.35"/><line x1="128" y1="6" x2="128" y2="86" stroke="#cbb3ff" stroke-width="4"/><path d="M80 122 Q40 104 30 138" fill="none" stroke="#1a0f2e" stroke-width="11" stroke-linecap="round"/><path d="M80 122 Q40 104 30 138" fill="none" stroke="#8a5cf0" stroke-width="5.5" stroke-linecap="round"/><path d="M80 136 Q40 118 30 152" fill="none" stroke="#1a0f2e" stroke-width="11" stroke-linecap="round"/><path d="M80 136 Q40 118 30 152" fill="none" stroke="#8a5cf0" stroke-width="5.5" stroke-linecap="round"/><path d="M80 150 Q40 132 30 166" fill="none" stroke="#1a0f2e" stroke-width="11" stroke-linecap="round"/><path d="M80 150 Q40 132 30 166" fill="none" stroke="#8a5cf0" stroke-width="5.5" stroke-linecap="round"/><path d="M80 164 Q40 146 30 180" fill="none" stroke="#1a0f2e" stroke-width="11" stroke-linecap="round"/><path d="M80 164 Q40 146 30 180" fill="none" stroke="#8a5cf0" stroke-width="5.5" stroke-linecap="round"/><path d="M176 122 Q216 104 226 138" fill="none" stroke="#1a0f2e" stroke-width="11" stroke-linecap="round"/><path d="M176 122 Q216 104 226 138" fill="none" stroke="#8a5cf0" stroke-width="5.5" stroke-linecap="round"/><path d="M176 136 Q216 118 226 152" fill="none" stroke="#1a0f2e" stroke-width="11" stroke-linecap="round"/><path d="M176 136 Q216 118 226 152" fill="none" stroke="#8a5cf0" stroke-width="5.5" stroke-linecap="round"/><path d="M176 150 Q216 132 226 166" fill="none" stroke="#1a0f2e" stroke-width="11" stroke-linecap="round"/><path d="M176 150 Q216 132 226 166" fill="none" stroke="#8a5cf0" stroke-width="5.5" stroke-linecap="round"/><path d="M176 164 Q216 146 226 180" fill="none" stroke="#1a0f2e" stroke-width="11" stroke-linecap="round"/><path d="M176 164 Q216 146 226 180" fill="none" stroke="#8a5cf0" stroke-width="5.5" stroke-linecap="round"/><circle cx="128" cy="142" r="54" fill="url(#g-inimigo-8)" stroke="#1a0f2e" stroke-width="7"/><ellipse cx="109.1" cy="112.3" rx="19.439999999999998" ry="10.8" fill="#fff" opacity="0.25" transform="rotate(-24 109.1 112.3)"/><circle cx="106" cy="118" r="7" fill="#ffd23e" stroke="#1a0f2e" stroke-width="3.5"/><circle cx="150" cy="118" r="7" fill="#ffd23e" stroke="#1a0f2e" stroke-width="3.5"/><ellipse cx="106" cy="140" rx="13" ry="15" fill="#fff" stroke="#1a0f2e" stroke-width="5"/><circle cx="108" cy="142" r="7" fill="#1a0f2e"/><circle cx="105.5" cy="139.2" r="2.4" fill="#fff"/><ellipse cx="150" cy="140" rx="13" ry="15" fill="#fff" stroke="#1a0f2e" stroke-width="5"/><circle cx="152" cy="142" r="7" fill="#1a0f2e"/><circle cx="149.6" cy="139.2" r="2.4" fill="#fff"/><path d="M118 166 Q128 176 138 166" fill="none" stroke="#1a0f2e" stroke-width="6" stroke-linecap="round"/><path d="M109 163 l6 13 l6 -13 z" fill="#fff" stroke="#1a0f2e" stroke-width="3.5" stroke-linejoin="round"/><path d="M135 163 l6 13 l6 -13 z" fill="#fff" stroke="#1a0f2e" stroke-width="3.5" stroke-linejoin="round"/>
</svg>
