<svg xmlns="http://www.w3.org/2000/svg" viewBox="0 0 256 256">
<defs><radialGradient id="g-inimigo-12" cx="38%" cy="32%" r="80%"><stop offset="0%" stop-color="#a75dff"/><stop offset="100%" stop-color="#5c15c4"/></radialGradient></defs><ellipse cx="128" cy="236" rx="66" ry="10" fill="#ffd23e" opacity="0.35"/><polygon points="79,114 60,84 93,97" fill="#ffd23e" stroke="#1a0f2e" stroke-width="5" stroke-linejoin="round"/><polygon points="102,91 103,56 123,85" fill="#ffd23e" stroke="#1a0f2e" stroke-width="5" stroke-linejoin="round"/><polygon points="133,85 153,56 154,91" fill="#ffd23e" stroke="#1a0f2e" stroke-width="5" stroke-linejoin="round"/><polygon points="163,97 196,84 177,114" fill="#ffd23e" stroke="#1a0f2e" stroke-width="5" stroke-linejoin="round"/><g stroke="#1a0f2e" stroke-width="5" stroke-linejoin="round"><line x1="64" y1="148" x2="52" y2="120" stroke-width="14" stroke-linecap="round"/><line x1="64" y1="148" x2="52" y2="120" stroke="#a75dff" stroke-width="9" stroke-linecap="round"/><rect x="38" y="102" width="26" height="24" rx="9" fill="#a75dff"/><rect x="38" y="80" width="9" height="28" rx="4.5" fill="#a75dff"/><rect x="56" y="80" width="9" height="28" rx="4.5" fill="#a75dff"/></g><circle cx="128" cy="140" r="58" fill="url(#g-inimigo-12)" stroke="#1a0f2e" stroke-width="7"/><ellipse cx="107.7" cy="108.1" rx="20.88" ry="11.600000000000001" fill="#fff" opacity="0.25" transform="rotate(-24 107.7 108.1)"/><polygon points="150.0,111.0 154.1,122.3 166.2,122.7 156.7,130.2 160.0,141.8 150.0,135.0 140.0,141.8 143.3,130.2 133.8,122.7 145.9,122.3" fill="#ffd23e" stroke="#1a0f2e" stroke-width="6" stroke-linejoin="round" opacity="0.95"/><ellipse cx="106" cy="130" rx="14" ry="16" fill="#fff" stroke="#1a0f2e" stroke-width="5"/><circle cx="108" cy="132" r="7" fill="#1a0f2e"/><circle cx="105.5" cy="129.2" r="2.4" fill="#fff"/><circle cx="150" cy="128" r="5" fill="#1a0f2e"/><path d="M114 162 Q128 181.6 142 162 Q128 166 114 162 Z" fill="#5a1030" stroke="#1a0f2e" stroke-width="5" stroke-linejoin="round"/><circle cx="86" cy="158" r="9" fill="#ff6ec0" opacity="0.5"/><circle cx="170" cy="158" r="9" fill="#ff6ec0" opacity="0.5"/>
</svg>
