<svg xmlns="http://www.w3.org/2000/svg" viewBox="0 0 256 256">
<defs><radialGradient id="g-inimigo-7" cx="38%" cy="32%" r="80%"><stop offset="0%" stop-color="#8fc9ff"/><stop offset="100%" stop-color="#3ea5ff"/></radialGradient></defs><ellipse cx="128" cy="236" rx="66" ry="10" fill="#3ea5ff" opacity="0.35"/><circle cx="84" cy="140" r="33" fill="url(#g-inimigo-7)" stroke="#1a0f2e" stroke-width="7"/><circle cx="132" cy="116" r="42" fill="url(#g-inimigo-7)" stroke="#1a0f2e" stroke-width="7"/><circle cx="176" cy="142" r="29" fill="url(#g-inimigo-7)" stroke="#1a0f2e" stroke-width="7"/><rect x="66" y="136" width="124" height="38" rx="19" fill="url(#g-inimigo-7)" stroke="#1a0f2e" stroke-width="7"/><circle cx="84" cy="140" r="33" fill="url(#g-inimigo-7)"/><circle cx="132" cy="116" r="42" fill="url(#g-inimigo-7)"/><circle cx="176" cy="142" r="29" fill="url(#g-inimigo-7)"/><rect x="66" y="136" width="124" height="38" rx="19" fill="url(#g-inimigo-7)"/><path transform="translate(128 208) scale(1.15)" d="M3 -24 L-11 4 L-3 4 L-7 24 L11 -5 L3 -5 Z" fill="#ffd23e" stroke="#1a0f2e" stroke-width="4.3" stroke-linejoin="round"/><path d="M91 108 L113 123" stroke="#134a80" stroke-width="7" stroke-linecap="round"/><path d="M165 108 L143 123" stroke="#134a80" stroke-width="7" stroke-linecap="round"/><ellipse cx="102" cy="134" rx="14" ry="16" fill="#fff" stroke="#1a0f2e" stroke-width="5"/><circle cx="104" cy="136" r="7" fill="#1a0f2e"/><circle cx="101.5" cy="133.2" r="2.4" fill="#fff"/><ellipse cx="154" cy="134" rx="14" ry="16" fill="#fff" stroke="#1a0f2e" stroke-width="5"/><circle cx="156" cy="136" r="7" fill="#1a0f2e"/><circle cx="153.6" cy="133.2" r="2.4" fill="#fff"/><path d="M110 160 l9 10 l9 -10 l9 10 l9 -10" fill="none" stroke="#1a0f2e" stroke-width="6" stroke-linecap="round" stroke-linejoin="round"/>
</svg>
