<svg xmlns="http://www.w3.org/2000/svg" viewBox="0 0 256 256">
<defs></defs><ellipse cx="128" cy="236" rx="66" ry="10" fill="#ff3ea5" opacity="0.35"/><path d="M84 180 q-30 28 -6 38 q20 8 26 -10" fill="none" stroke="#1a0f2e" stroke-width="11" stroke-linecap="round"/><path d="M84 180 q-30 28 -6 38 q20 8 26 -10" fill="none" stroke="#2e2440" stroke-width="6" stroke-linecap="round"/><polygon points="86,106 82,66 116,90" fill="#2e2440" stroke="#1a0f2e" stroke-width="6" stroke-linejoin="round"/><polygon points="170,106 174,66 140,90" fill="#2e2440" stroke="#1a0f2e" stroke-width="6" stroke-linejoin="round"/><polygon points="91,100 88,76 108,91" fill="#ff3ea5"/><polygon points="165,100 168,76 148,91" fill="#ff3ea5"/><circle cx="128" cy="140" r="52" fill="#2e2440" stroke="#1a0f2e" stroke-width="7"/><ellipse cx="109.8" cy="111.4" rx="18.72" ry="10.4" fill="#fff" opacity="0.25" transform="rotate(-24 109.8 111.4)"/><ellipse cx="106" cy="134" rx="13" ry="13.65" fill="#ffd23e" stroke="#1a0f2e" stroke-width="4"/><ellipse cx="106" cy="134" rx="3.6400000000000006" ry="10.4" fill="#1a0f2e"/><circle cx="102.75" cy="129.45" r="2.6" fill="#fff"/><ellipse cx="150" cy="134" rx="13" ry="13.65" fill="#ffd23e" stroke="#1a0f2e" stroke-width="4"/><ellipse cx="150" cy="134" rx="3.6400000000000006" ry="10.4" fill="#1a0f2e"/><circle cx="146.75" cy="129.45" r="2.6" fill="#fff"/><path d="M128 154 l-6 8 h12 z" fill="#ff3ea5" stroke="#1a0f2e" stroke-width="3" stroke-linejoin="round"/><path d="M128 162 q-8 10 -18 6 M128 162 q8 10 18 6" fill="none" stroke="#1a0f2e" stroke-width="5" stroke-linecap="round"/><g stroke="#cbb3ff" stroke-width="3.5" stroke-linecap="round" opacity="0.9"><path d="M76 146 h-26 M76 158 l-24 8"/><path d="M180 146 h26 M180 158 l24 8"/></g>
</svg>
