<svg xmlns="http://www.w3.org/2000/svg" viewBox="0 0 256 256">
<defs><radialGradient id="g-inimigo-10" cx="38%" cy="32%" r="80%"><stop offset="0%" stop-color="#ffe98f"/><stop offset="100%" stop-color="#ffb020"/></radialGradient></defs><ellipse cx="128" cy="236" rx="66" ry="10" fill="#ffd23e" opacity="0.35"/><path d="M80 116 Q128 98 176 116 L190 212 Q128 228 66 212 Z" fill="#ff3ea5" stroke="#1a0f2e" stroke-width="6" stroke-linejoin="round"/><circle cx="128" cy="142" r="56" fill="url(#g-inimigo-10)" stroke="#1a0f2e" stroke-width="7"/><ellipse cx="108.4" cy="111.19999999999999" rx="20.16" ry="11.200000000000001" fill="#fff" opacity="0.25" transform="rotate(-24 108.4 111.19999999999999)"/><path d="M108 92 l4.4 -20.8 l6.800000000000001 12.896 l8.8 -19.759999999999998 l8.8 19.759999999999998 l6.800000000000001 -12.896 l4.4 20.8 z" fill="#ffd23e" stroke="#1a0f2e" stroke-width="6" stroke-linejoin="round"/><circle cx="128" cy="87.84" r="4" fill="#ff3ea5" stroke="#1a0f2e" stroke-width="3"/><ellipse cx="106" cy="134" rx="14" ry="16" fill="#fff" stroke="#1a0f2e" stroke-width="5"/><circle cx="108" cy="136" r="7" fill="#1a0f2e"/><circle cx="105.5" cy="133.2" r="2.4" fill="#fff"/><ellipse cx="150" cy="134" rx="14" ry="16" fill="#fff" stroke="#1a0f2e" stroke-width="5"/><circle cx="152" cy="136" r="7" fill="#1a0f2e"/><circle cx="149.6" cy="133.2" r="2.4" fill="#fff"/><path d="M117 162 Q128 172 139 162" fill="none" stroke="#1a0f2e" stroke-width="6" stroke-linecap="round"/><circle cx="88" cy="156" r="9" fill="#ff9ad2" opacity="0.5"/><circle cx="168" cy="156" r="9" fill="#ff9ad2" opacity="0.5"/>
</svg>
