<svg xmlns="http://www.w3.org/2000/svg" viewBox="0 0 256 256">
<defs><radialGradient id="g-inimigo-6" cx="38%" cy="32%" r="80%"><stop offset="0%" stop-color="#4a2a80"/><stop offset="100%" stop-color="#241040"/></radialGradient></defs><ellipse cx="128" cy="236" rx="66" ry="10" fill="#2ff7e6" opacity="0.35"/><path d="M96 142 q-42.5 -37.5 -72.5 -15 q-7.5 27.5 2.5 42.5 q15 -10 22.5 2.5 q5 17.5 17.5 20 q12.5 -7.5 30 -5 z" fill="#2a1550" stroke="#1a0f2e" stroke-width="6" stroke-linejoin="round"/><path d="M160 142 q42.5 -37.5 72.5 -15 q7.5 27.5 -2.5 42.5 q-15 -10 -22.5 2.5 q-5 17.5 -17.5 20 q-12.5 -7.5 -30 -5 z" fill="#2a1550" stroke="#1a0f2e" stroke-width="6" stroke-linejoin="round"/><polygon points="98,102 108,66 124,96" fill="#2a1550" stroke="#1a0f2e" stroke-width="6" stroke-linejoin="round"/><polygon points="158,102 148,66 132,96" fill="#2a1550" stroke="#1a0f2e" stroke-width="6" stroke-linejoin="round"/><circle cx="128" cy="138" r="50" fill="url(#g-inimigo-6)" stroke="#1a0f2e" stroke-width="7"/><ellipse cx="110.5" cy="110.5" rx="18" ry="10" fill="#fff" opacity="0.25" transform="rotate(-24 110.5 110.5)"/><circle cx="108" cy="132" r="11" fill="#2ff7e6"/><circle cx="104.7" cy="128.15" r="3.3" fill="#fff"/><circle cx="148" cy="132" r="11" fill="#2ff7e6"/><circle cx="144.7" cy="128.15" r="3.3" fill="#fff"/><path d="M118 160 Q128 170 138 160" fill="none" stroke="#2ff7e6" stroke-width="6" stroke-linecap="round"/><path d="M110 156 l6 13 l6 -13 z" fill="#fff" stroke="#1a0f2e" stroke-width="3.5" stroke-linejoin="round"/><path d="M134 156 l6 13 l6 -13 z" fill="#fff" stroke="#1a0f2e" stroke-width="3.5" stroke-linejoin="round"/>
</svg>
